<svg width="129" height="188" viewBox="0 0 129 188" fill="none" xmlns="http://www.w3.org/2000/svg">
<g clip-path="url(#clip0_110_450)">
<path d="M39 23C39 30.732 32.732 37 25 37C17.268 37 11 30.732 11 23C11 15.268 17.268 9 25 9C32.732 9 39 15.268 39 23ZM13.8033 23C13.8033 29.1838 18.8162 34.1967 25 34.1967C31.1838 34.1967 36.1967 29.1838 36.1967 23C36.1967 16.8162 31.1838 11.8033 25 11.8033C18.8162 11.8033 13.8033 16.8162 13.8033 23Z" fill="#FFFFFF" fill-opacity="0.08"/>
<path d="M64 87C64 94.732 57.732 101 50 101C42.268 101 36 94.732 36 87C36 79.268 42.268 73 50 73C57.732 73 64 79.268 64 87ZM38.8033 87C38.8033 93.1838 43.8162 98.1967 50 98.1967C56.1838 98.1967 61.1967 93.1838 61.1967 87C61.1967 80.8162 56.1838 75.8033 50 75.8033C43.8162 75.8033 38.8033 80.8162 38.8033 87Z" fill="#FFFFFF" fill-opacity="0.08"/>
<path d="M69 205.5C69 239.466 41.4655 267 7.5 267C-26.4655 267 -54 239.466 -54 205.5C-54 171.534 -26.4655 144 7.5 144C41.4655 144 69 171.534 69 205.5ZM-30.706 205.5C-30.706 226.601 -13.6006 243.706 7.5 243.706C28.6006 243.706 45.706 226.601 45.706 205.5C45.706 184.399 28.6006 167.294 7.5 167.294C-13.6006 167.294 -30.706 184.399 -30.706 205.5Z" fill="#FFFFFF" fill-opacity="0.08"/>
<path d="M207 104.5C207 138.466 179.466 166 145.5 166C111.534 166 84 138.466 84 104.5C84 70.5345 111.534 43 145.5 43C179.466 43 207 70.5345 207 104.5ZM102.112 104.5C102.112 128.463 121.537 147.888 145.5 147.888C169.463 147.888 188.888 128.463 188.888 104.5C188.888 80.5375 169.463 61.1121 145.5 61.1121C121.537 61.1121 102.112 80.5375 102.112 104.5Z" fill="#FFFFFF" fill-opacity="0.08"/>
</g>
<defs>
<clipPath id="clip0_110_450">
<rect width="129" height="188" rx="20" fill="white"/>
</clipPath>
</defs>
</svg>
