<svg width="36" height="36" viewBox="0 0 36 36" fill="none" xmlns="http://www.w3.org/2000/svg">
<path d="M24.5097 2.99878C29.5947 2.99878 32.9997 6.56878 32.9997 11.8788V24.1353C32.9997 29.4303 29.5947 32.9988 24.5097 32.9988H11.5047C6.41969 32.9988 2.99969 29.4303 2.99969 24.1353V11.8788C2.99969 6.56878 6.41969 2.99878 11.5047 2.99878H24.5097ZM22.5147 13.4553C22.0047 12.9438 21.1797 12.9438 20.6547 13.4553L17.9997 16.1238L15.3297 13.4553C14.8047 12.9438 13.9797 12.9438 13.4697 13.4553C12.9597 13.9653 12.9597 14.8053 13.4697 15.3138L16.1397 17.9853L13.4697 20.6403C12.9597 21.1653 12.9597 21.9903 13.4697 22.4988C13.7247 22.7538 14.0697 22.8903 14.3997 22.8903C14.7447 22.8903 15.0747 22.7538 15.3297 22.4988L17.9997 19.8453L20.6697 22.4988C20.9247 22.7703 21.2547 22.8903 21.5847 22.8903C21.9297 22.8903 22.2597 22.7538 22.5147 22.4988C23.0247 21.9903 23.0247 21.1653 22.5147 20.6553L19.8447 17.9853L22.5147 15.3138C23.0247 14.8053 23.0247 13.9653 22.5147 13.4553Z" fill="#025892"/>
</svg>
