<svg width="20" height="5" viewBox="0 0 20 5" fill="none" xmlns="http://www.w3.org/2000/svg">
<path d="M2.75 4.5C3.99264 4.5 5 3.49264 5 2.25C5 1.00736 3.99264 0 2.75 0C1.50736 0 0.5 1.00736 0.5 2.25C0.5 3.49264 1.50736 4.5 2.75 4.5Z" fill="#ABCEF5"/>
<path d="M10.25 4.5C11.4926 4.5 12.5 3.49264 12.5 2.25C12.5 1.00736 11.4926 0 10.25 0C9.00736 0 8 1.00736 8 2.25C8 3.49264 9.00736 4.5 10.25 4.5Z" fill="#ABCEF5"/>
<path d="M17.75 4.5C18.9926 4.5 20 3.49264 20 2.25C20 1.00736 18.9926 0 17.75 0C16.5074 0 15.5 1.00736 15.5 2.25C15.5 3.49264 16.5074 4.5 17.75 4.5Z" fill="#ABCEF5"/>
</svg>
