<svg width="24" height="24" viewBox="0 0 24 24" fill="none" xmlns="http://www.w3.org/2000/svg">
<path d="M4.75 14.5C5.99264 14.5 7 13.4926 7 12.25C7 11.0074 5.99264 10 4.75 10C3.50736 10 2.5 11.0074 2.5 12.25C2.5 13.4926 3.50736 14.5 4.75 14.5Z" fill="#ABCEF5"/>
<path d="M12.25 14.5C13.4926 14.5 14.5 13.4926 14.5 12.25C14.5 11.0074 13.4926 10 12.25 10C11.0074 10 10 11.0074 10 12.25C10 13.4926 11.0074 14.5 12.25 14.5Z" fill="#ABCEF5"/>
<path d="M19.75 14.5C20.9926 14.5 22 13.4926 22 12.25C22 11.0074 20.9926 10 19.75 10C18.5074 10 17.5 11.0074 17.5 12.25C17.5 13.4926 18.5074 14.5 19.75 14.5Z" fill="#ABCEF5"/>
</svg>
