<svg width="25" height="24" viewBox="0 0 25 24" fill="none" xmlns="http://www.w3.org/2000/svg">
<path d="M20.7373 15.9989C20.6591 15.9052 20.5823 15.8114 20.5069 15.7209C19.4702 14.4736 18.843 13.7208 18.843 10.1897C18.843 8.36156 18.4034 6.86156 17.5368 5.73656C16.8979 4.90547 16.0341 4.275 14.8957 3.80906C14.881 3.80096 14.8679 3.79032 14.857 3.77766C14.4475 2.41359 13.327 1.5 12.0632 1.5C10.7994 1.5 9.67928 2.41359 9.2698 3.77625C9.25887 3.78845 9.24597 3.79875 9.23163 3.80672C6.57491 4.89469 5.28377 6.98203 5.28377 10.1883C5.28377 13.7208 4.65753 14.4736 3.61991 15.7195C3.54451 15.81 3.4677 15.9019 3.38948 15.9975C3.18742 16.2399 3.0594 16.5348 3.02057 16.8473C2.98174 17.1598 3.03372 17.4769 3.17036 17.7609C3.46111 18.3703 4.08076 18.7486 4.78805 18.7486H19.3435C20.0475 18.7486 20.6629 18.3708 20.9546 17.7642C21.0918 17.4801 21.1443 17.1628 21.1058 16.8499C21.0673 16.537 20.9394 16.2417 20.7373 15.9989ZM12.0632 22.5C12.7441 22.4995 13.4122 22.3156 13.9966 21.9679C14.5809 21.6202 15.0598 21.1217 15.3824 20.5252C15.3976 20.4966 15.4051 20.4646 15.4042 20.4322C15.4033 20.3999 15.394 20.3684 15.3772 20.3407C15.3604 20.313 15.3367 20.2901 15.3084 20.2742C15.2801 20.2583 15.2481 20.25 15.2156 20.25H8.91167C8.87912 20.2499 8.8471 20.2582 8.81872 20.274C8.79034 20.2899 8.76657 20.3128 8.74972 20.3405C8.73288 20.3682 8.72354 20.3997 8.7226 20.4321C8.72167 20.4645 8.72917 20.4965 8.74439 20.5252C9.06695 21.1216 9.54577 21.6201 10.1301 21.9678C10.7143 22.3155 11.3823 22.4994 12.0632 22.5Z" fill="#025892"/>
</svg>
