<svg width="24" height="25" viewBox="0 0 24 25" fill="none" xmlns="http://www.w3.org/2000/svg">
<path d="M9.24995 22.5L8.84995 19.3C8.63328 19.2167 8.42912 19.1167 8.23745 19C8.04578 18.8833 7.85828 18.7583 7.67495 18.625L4.69995 19.875L1.94995 15.125L4.52495 13.175C4.50828 13.0583 4.49995 12.9458 4.49995 12.8375V12.1625C4.49995 12.0542 4.50828 11.9417 4.52495 11.825L1.94995 9.875L4.69995 5.125L7.67495 6.375C7.85828 6.24167 8.04995 6.11667 8.24995 6C8.44995 5.88333 8.64995 5.78333 8.84995 5.7L9.24995 2.5H14.75L15.15 5.7C15.3666 5.78333 15.5708 5.88333 15.7625 6C15.9541 6.11667 16.1416 6.24167 16.325 6.375L19.3 5.125L22.05 9.875L19.475 11.825C19.4916 11.9417 19.5 12.0542 19.5 12.1625V12.8375C19.5 12.9458 19.4833 13.0583 19.45 13.175L22.025 15.125L19.275 19.875L16.325 18.625C16.1416 18.7583 15.95 18.8833 15.75 19C15.55 19.1167 15.35 19.2167 15.15 19.3L14.75 22.5H9.24995ZM11 20.5H12.975L13.325 17.85C13.8416 17.7167 14.3208 17.5208 14.7625 17.2625C15.2041 17.0042 15.6083 16.6917 15.975 16.325L18.45 17.35L19.425 15.65L17.275 14.025C17.3583 13.7917 17.4166 13.5458 17.45 13.2875C17.4833 13.0292 17.5 12.7667 17.5 12.5C17.5 12.2333 17.4833 11.9708 17.45 11.7125C17.4166 11.4542 17.3583 11.2083 17.275 10.975L19.425 9.35L18.45 7.65L15.975 8.7C15.6083 8.31667 15.2041 7.99583 14.7625 7.7375C14.3208 7.47917 13.8416 7.28333 13.325 7.15L13 4.5H11.025L10.675 7.15C10.1583 7.28333 9.67912 7.47917 9.23745 7.7375C8.79578 7.99583 8.39162 8.30833 8.02495 8.675L5.54995 7.65L4.57495 9.35L6.72495 10.95C6.64162 11.2 6.58328 11.45 6.54995 11.7C6.51662 11.95 6.49995 12.2167 6.49995 12.5C6.49995 12.7667 6.51662 13.025 6.54995 13.275C6.58328 13.525 6.64162 13.775 6.72495 14.025L4.57495 15.65L5.54995 17.35L8.02495 16.3C8.39162 16.6833 8.79578 17.0042 9.23745 17.2625C9.67912 17.5208 10.1583 17.7167 10.675 17.85L11 20.5ZM12.05 16C13.0166 16 13.8416 15.6583 14.525 14.975C15.2083 14.2917 15.55 13.4667 15.55 12.5C15.55 11.5333 15.2083 10.7083 14.525 10.025C13.8416 9.34167 13.0166 9 12.05 9C11.0666 9 10.2375 9.34167 9.56245 10.025C8.88745 10.7083 8.54995 11.5333 8.54995 12.5C8.54995 13.4667 8.88745 14.2917 9.56245 14.975C10.2375 15.6583 11.0666 16 12.05 16Z" fill="white"/>
</svg>
