<svg width="20" height="20" viewBox="0 0 20 20" fill="none" xmlns="http://www.w3.org/2000/svg">
<path d="M10 19C14.9706 19 19 14.9706 19 10C19 5.02944 14.9706 1 10 1C5.02944 1 1 5.02944 1 10C1 14.9706 5.02944 19 10 19Z" stroke="white" stroke-width="2" stroke-miterlimit="10"/>
<path d="M10.077 4.27455C7.31295 4.27455 5.87664 6.28619 5.90968 8.47941C5.92541 9.49769 6.44455 10.767 7.25002 11.1693C7.37273 11.2298 7.43723 11.2031 7.4624 11.0767C7.48285 10.9806 7.58353 10.5088 7.62758 10.2899C7.63603 10.2549 7.63611 10.218 7.62781 10.183C7.61952 10.1479 7.60315 10.116 7.58039 10.0905C7.26711 9.63717 7.09165 9.08144 7.08012 8.50611C7.05809 6.97513 8.11212 5.49043 9.92756 5.49043C11.5007 5.49043 12.6208 6.65291 12.6476 8.31563C12.6743 10.1937 11.8217 11.4969 10.6827 11.4969C10.0534 11.4969 9.58146 10.9343 9.71361 10.24C9.88194 9.4158 10.2186 8.52391 10.2092 7.92576C10.2013 7.3917 9.92913 6.94664 9.38324 6.94664C8.73981 6.94664 8.23483 7.66941 8.25056 8.63428C8.2525 8.99089 8.32338 9.3427 8.45822 9.66503C8.45822 9.66503 7.86828 12.5775 7.7613 13.1186C7.57724 14.0372 7.82423 15.5273 7.84625 15.659C7.84773 15.6745 7.85336 15.6891 7.86237 15.7009C7.87139 15.7127 7.88337 15.721 7.8967 15.7249C7.91004 15.7288 7.92411 15.728 7.93702 15.7225C7.94993 15.7171 7.96107 15.7074 7.96896 15.6946C8.03031 15.6038 8.776 14.3594 8.97894 13.4604C9.0513 13.1347 9.35178 11.8084 9.35178 11.8084C9.56888 12.241 10.184 12.6059 10.8321 12.6059C12.764 12.6059 14.1279 10.6797 14.0902 8.28536C14.054 5.99067 12.2999 4.27277 10.0786 4.27277" fill="white"/>
</svg>
