<svg width="18" height="18" viewBox="0 0 18 18" fill="none" xmlns="http://www.w3.org/2000/svg">
<mask id="mask0_512_8479" style="mask-type:alpha" maskUnits="userSpaceOnUse" x="0" y="0" width="18" height="18">
<path d="M0 18V0H17.9944V18H0Z" fill="white"/>
</mask>
<g mask="url(#mask0_512_8479)">
<path fill-rule="evenodd" clip-rule="evenodd" d="M17.9945 8.99394C17.9945 13.9676 13.9625 17.9996 8.9889 17.9996C4.01526 17.9996 -0.0167236 13.9676 -0.0167236 8.99394C-0.0167236 4.0203 4.01526 -0.0116882 8.9889 -0.0116882C13.9625 -0.0116882 17.9945 4.0203 17.9945 8.99394Z" fill="#025892"/>
<path fill-rule="evenodd" clip-rule="evenodd" d="M11.9329 11.8089C11.8103 11.8091 11.691 11.7693 11.5931 11.6955C11.4952 11.6217 11.4241 11.5179 11.3906 11.3999C11.3571 11.282 11.363 11.1563 11.4076 11.0421C11.4521 10.9278 11.5327 10.8312 11.6372 10.767L14.486 9.01064V8.97856L11.6372 7.22218C11.5726 7.18421 11.5163 7.13373 11.4714 7.0737C11.4266 7.01367 11.3943 6.94531 11.3762 6.87261C11.3582 6.79991 11.3548 6.72434 11.3664 6.65033C11.3779 6.57632 11.4041 6.50536 11.4434 6.4416C11.4827 6.37784 11.5344 6.32257 11.5953 6.27903C11.6563 6.23549 11.7253 6.20455 11.7984 6.18803C11.8714 6.17151 11.947 6.16974 12.0208 6.18282C12.0945 6.1959 12.1649 6.22357 12.2279 6.26421L15.2197 8.10867L15.2661 8.15511C15.4883 8.37799 15.6131 8.67988 15.6131 8.9946C15.6131 9.30933 15.4883 9.61121 15.2661 9.8341L15.2197 9.88053L12.2279 11.725C12.1358 11.7818 12.0337 11.8089 11.9329 11.8089ZM6.04494 11.8089C5.94419 11.8089 5.84203 11.7818 5.75001 11.725L2.75817 9.88053L2.71173 9.8341C2.48952 9.61121 2.36475 9.30933 2.36475 8.9946C2.36475 8.67988 2.48952 8.37799 2.71173 8.15511L2.75817 8.10867L5.75001 6.26421C5.87704 6.18587 6.02999 6.16121 6.17521 6.19565C6.32043 6.23009 6.44602 6.3208 6.52435 6.44784C6.60268 6.57487 6.62734 6.72782 6.59291 6.87304C6.55847 7.01826 6.46775 7.14385 6.34072 7.22218L3.49184 8.97856V9.01064L6.34072 10.767C6.44497 10.8314 6.52539 10.928 6.56976 11.0421C6.61413 11.1563 6.62004 11.2819 6.58658 11.3997C6.55312 11.5176 6.48213 11.6213 6.38438 11.6951C6.28662 11.769 6.16745 11.8089 6.04494 11.8089ZM7.15967 14.342C7.06839 14.342 6.97849 14.3198 6.8977 14.2773C6.81691 14.2348 6.74766 14.1734 6.69592 14.0982C6.64418 14.023 6.61151 13.9363 6.60072 13.8457C6.58992 13.755 6.60133 13.6631 6.63396 13.5779L10.2925 4.00942C10.3182 3.9394 10.3575 3.87517 10.4082 3.82046C10.4588 3.76576 10.5199 3.72168 10.5878 3.69077C10.6556 3.65987 10.729 3.64276 10.8035 3.64044C10.878 3.63812 10.9523 3.65064 11.022 3.67726C11.0916 3.70389 11.1553 3.74409 11.2093 3.79554C11.2633 3.84699 11.3065 3.90865 11.3365 3.97695C11.3664 4.04524 11.3825 4.11881 11.3838 4.19338C11.3851 4.26794 11.3715 4.34202 11.3439 4.4113L7.68537 13.9798C7.64473 14.0863 7.57271 14.1779 7.47884 14.2426C7.38496 14.3073 7.27366 14.3419 7.15967 14.342Z" fill="white"/>
</g>
</svg>
