<svg width="18" height="18" viewBox="0 0 18 18" fill="none" xmlns="http://www.w3.org/2000/svg">
<path d="M9 17C13.4183 17 17 13.4183 17 9C17 4.58172 13.4183 1 9 1C4.58172 1 1 4.58172 1 9C1 13.4183 4.58172 17 9 17Z" stroke="#025892" stroke-width="2" stroke-miterlimit="10"/>
<path d="M9.00002 3.66666C7.94519 3.66666 6.91404 3.97945 6.03698 4.56549C5.15992 5.15152 4.47633 5.98447 4.07267 6.95901C3.669 7.93355 3.56338 9.00591 3.76917 10.0405C3.97496 11.075 4.48291 12.0253 5.22879 12.7712C5.97467 13.5171 6.92497 14.0251 7.95954 14.2308C8.99411 14.4366 10.0665 14.331 11.041 13.9273C12.0155 13.5237 12.8485 12.8401 13.4345 11.963C14.0206 11.086 14.3334 10.0548 14.3334 8.99999C14.3303 7.58644 13.7674 6.23165 12.7679 5.23212C11.7684 4.23258 10.4136 3.6697 9.00002 3.66666ZM9.64146 7.25152C9.12362 6.33593 8.5543 5.45043 7.93624 4.59927C8.21181 4.51496 8.49851 4.47269 8.78669 4.47386C8.86549 4.47386 8.94669 4.47675 9.03029 4.48251C10.1347 4.48217 11.2009 4.88681 12.027 5.61981C11.9391 5.73657 11.24 6.64035 9.63714 7.25152H9.64146ZM4.54164 8.08179C4.68109 7.39052 4.98404 6.74268 5.42516 6.19248C5.86627 5.64227 6.43273 5.2057 7.07714 4.91927C7.68408 5.76203 8.24374 6.63786 8.75354 7.54269C7.3755 7.88655 5.96186 8.06749 4.54164 8.08179ZM10.3982 8.82557C10.3694 8.75206 10.3247 8.66557 10.2959 8.59206C10.2079 8.35855 10.0912 8.15963 9.99029 7.9362C11.6811 7.23711 12.4249 6.24539 12.5258 6.12864C13.1827 6.93264 13.5521 7.93315 13.5752 8.97116C12.875 8.83576 12.1636 8.76627 11.4505 8.76359C11.1012 8.76268 10.7522 8.78339 10.4054 8.82557H10.3982ZM4.69444 8.87458C6.19546 8.86326 7.68782 8.64598 9.12975 8.22882C9.2739 8.49116 9.39209 8.7535 9.50885 9.01584C9.44351 9.01632 9.37906 9.03108 9.32002 9.05909C6.9748 9.81585 5.70633 11.9002 5.61984 12.0602C4.86401 11.2253 4.44354 10.1405 4.4393 9.0144V8.87026C4.47534 8.87026 4.56327 8.87026 4.69588 8.87026L4.69444 8.87458ZM11.5355 12.7881C11.3352 11.6825 11.0425 10.5957 10.6606 9.53909C10.9742 9.48834 11.2914 9.46328 11.609 9.46413C12.249 9.46628 12.8857 9.55551 13.5016 9.72936C13.3957 10.345 13.1671 10.933 12.8293 11.4585C12.4916 11.9839 12.0516 12.4361 11.5355 12.7881ZM9.00002 13.5463C7.98558 13.5369 7.0024 13.194 6.20218 12.5704C6.29011 12.4104 7.22272 10.6317 9.77263 9.72936H9.80146C10.2346 10.8523 10.5613 12.0134 10.7773 13.1975C10.2151 13.4344 9.61011 13.5531 9.00002 13.5463Z" fill="#025892"/>
</svg>
