<svg width="64" height="64" viewBox="0 0 64 64" fill="none" xmlns="http://www.w3.org/2000/svg">
<path d="M45.7437 0.333008C56.4787 0.333008 63.6671 7.86967 63.6671 19.0797V44.9545C63.6671 56.1297 56.4787 63.6663 45.7437 63.6663H18.2887C7.55374 63.6663 0.33374 56.1297 0.33374 44.9545V19.0797C0.33374 7.86967 7.55374 0.333008 18.2887 0.333008H45.7437ZM45.2371 22.4997C44.1604 21.423 42.3871 21.423 41.3104 22.4997L28.2321 35.578L22.6904 30.0363C21.6137 28.9597 19.8404 28.9597 18.7637 30.0363C17.6871 31.113 17.6871 32.8547 18.7637 33.963L26.3004 41.468C26.8387 42.0063 27.5354 42.2597 28.2321 42.2597C28.9604 42.2597 29.6571 42.0063 30.1954 41.468L45.2371 26.4263C46.3137 25.3497 46.3137 23.608 45.2371 22.4997Z" fill="#025892"/>
</svg>
