<svg width="20" height="20" viewBox="0 0 20 20" fill="none" xmlns="http://www.w3.org/2000/svg">
<mask id="mask0_512_8119" style="mask-type:alpha" maskUnits="userSpaceOnUse" x="0" y="0" width="20" height="20">
<path d="M0 20V0H19.9937V20H0Z" fill="white"/>
</mask>
<g mask="url(#mask0_512_8119)">
<path fill-rule="evenodd" clip-rule="evenodd" d="M19.994 9.99325C19.994 15.5195 15.514 19.9995 9.9877 19.9995C4.46143 19.9995 -0.0185547 15.5195 -0.0185547 9.99325C-0.0185547 4.46699 4.46143 -0.0130005 9.9877 -0.0130005C15.514 -0.0130005 19.994 4.46699 19.994 9.99325Z" fill="white"/>
<path fill-rule="evenodd" clip-rule="evenodd" d="M13.2589 13.1209C13.1226 13.1212 12.99 13.077 12.8813 12.995C12.7725 12.913 12.6935 12.7976 12.6563 12.6666C12.619 12.5355 12.6257 12.3959 12.6751 12.2689C12.7246 12.142 12.8142 12.0347 12.9302 11.9633L16.0957 10.0118V9.97616L12.9302 8.02463C12.8585 7.98244 12.7959 7.92635 12.7461 7.85965C12.6963 7.79296 12.6604 7.717 12.6403 7.63622C12.6203 7.55544 12.6165 7.47148 12.6294 7.38925C12.6422 7.30701 12.6713 7.22816 12.715 7.15732C12.7587 7.08648 12.816 7.02507 12.8838 6.97669C12.9515 6.92831 13.0282 6.89394 13.1094 6.87558C13.1905 6.85722 13.2746 6.85525 13.3565 6.86979C13.4384 6.88432 13.5167 6.91506 13.5866 6.96022L16.9109 9.00962L16.9624 9.06122C17.2093 9.30886 17.348 9.64429 17.348 9.99399C17.348 10.3437 17.2093 10.6791 16.9624 10.9268L16.9109 10.9784L13.5866 13.0278C13.4843 13.0909 13.3708 13.1209 13.2589 13.1209ZM6.71667 13.1209C6.60472 13.1209 6.49121 13.0909 6.38896 13.0278L3.0647 10.9784L3.0131 10.9268C2.76621 10.6791 2.62756 10.3437 2.62756 9.99399C2.62756 9.64429 2.76621 9.30886 3.0131 9.06122L3.0647 9.00962L6.38896 6.96022C6.53011 6.87318 6.70006 6.84578 6.86141 6.88404C7.02276 6.92231 7.16231 7.0231 7.24934 7.16425C7.33638 7.3054 7.36378 7.47535 7.32552 7.6367C7.28725 7.79805 7.18646 7.93759 7.04531 8.02463L3.87989 9.97616V10.0118L7.04531 11.9633C7.16115 12.0348 7.2505 12.1422 7.2998 12.269C7.34911 12.3959 7.35567 12.5354 7.31849 12.6664C7.28132 12.7973 7.20244 12.9125 7.09382 12.9946C6.9852 13.0766 6.85279 13.121 6.71667 13.1209ZM7.95525 15.9355C7.85384 15.9355 7.75394 15.9109 7.66417 15.8637C7.57441 15.8165 7.49746 15.7482 7.43998 15.6646C7.38249 15.5811 7.34619 15.4848 7.3342 15.3841C7.3222 15.2834 7.33488 15.1813 7.37114 15.0865L11.4362 4.4549C11.4647 4.37709 11.5084 4.30573 11.5647 4.24495C11.621 4.18417 11.6888 4.13518 11.7642 4.10084C11.8397 4.06651 11.9211 4.0475 12.004 4.04492C12.0868 4.04234 12.1693 4.05625 12.2467 4.08584C12.3241 4.11542 12.3949 4.16009 12.4548 4.21725C12.5148 4.27442 12.5629 4.34293 12.5961 4.41882C12.6294 4.4947 12.6473 4.57644 12.6487 4.65929C12.6501 4.74214 12.6351 4.82445 12.6044 4.90143L8.53937 15.5331C8.49421 15.6514 8.41419 15.7533 8.30989 15.8251C8.20558 15.897 8.08192 15.9355 7.95525 15.9355Z" fill="#582CD9"/>
</g>
</svg>
