<svg width="18" height="18" viewBox="0 0 18 18" fill="none" xmlns="http://www.w3.org/2000/svg">
<path d="M9 17C13.4183 17 17 13.4183 17 9C17 4.58172 13.4183 1 9 1C4.58172 1 1 4.58172 1 9C1 13.4183 4.58172 17 9 17Z" stroke="#025892" stroke-width="2" stroke-miterlimit="10"/>
<path d="M9.06844 3.9107C6.61149 3.9107 5.33478 5.69882 5.36414 7.64835C5.37813 8.55349 5.83959 9.68175 6.55556 10.0394C6.66463 10.0932 6.72197 10.0694 6.74434 9.95709C6.76252 9.87164 6.85201 9.4523 6.89117 9.25767C6.89868 9.22657 6.89875 9.19377 6.89138 9.16263C6.88401 9.13149 6.86946 9.10312 6.84922 9.08044C6.57076 8.67747 6.41478 8.1835 6.40453 7.67209C6.38496 6.31122 7.32187 4.99149 8.93559 4.99149C10.334 4.99149 11.3296 6.0248 11.3534 7.50277C11.3772 9.17221 10.6192 10.3305 9.60681 10.3305C9.04746 10.3305 8.62795 9.8305 8.74541 9.21336C8.89504 8.4807 9.19429 7.68791 9.1859 7.15622C9.17891 6.6815 8.93699 6.2859 8.45176 6.2859C7.87982 6.2859 7.43094 6.92836 7.44493 7.78602C7.44665 8.10301 7.50965 8.41573 7.62951 8.70224C7.62951 8.70224 7.10512 11.2911 7.01003 11.7721C6.84642 12.5886 7.06597 13.9131 7.08554 14.0302C7.08686 14.044 7.09186 14.057 7.09987 14.0674C7.10789 14.0779 7.11853 14.0854 7.13039 14.0888C7.14225 14.0922 7.15475 14.0915 7.16622 14.0867C7.1777 14.0819 7.18761 14.0732 7.19462 14.0619C7.24915 13.9812 7.91198 12.8751 8.09237 12.0759C8.1567 11.7864 8.42379 10.6075 8.42379 10.6075C8.61676 10.992 9.16353 11.3164 9.73966 11.3164C11.4569 11.3164 12.6693 9.60421 12.6357 7.47587C12.6035 5.43614 11.0443 3.90912 9.06984 3.90912" fill="#025892"/>
</svg>
